<svg width="22" height="22" viewBox="0 0 22 22" fill="none" xmlns="http://www.w3.org/2000/svg">
<path d="M2.89711 4.88934L8.98155 9.47782C10.189 10.3884 11.811 10.3884 13.0184 9.47782L19.1029 4.88934M1.40568 14.5014C0.864774 12.2021 0.864774 9.79794 1.40568 7.49861C2.11374 4.48871 4.37475 2.16149 7.24269 1.49069L7.72045 1.37894C9.88063 0.873686 12.1194 0.873686 14.2796 1.37894L14.7573 1.49069C17.6253 2.16149 19.8863 4.48871 20.5943 7.49862C21.1352 9.79795 21.1352 12.2021 20.5943 14.5014C19.8863 17.5113 17.6252 19.8385 14.7573 20.5093L14.2796 20.6211C12.1194 21.1263 9.88063 21.1263 7.72045 20.6211L7.24269 20.5093C4.37475 19.8385 2.11374 17.5113 1.40568 14.5014Z" stroke="#3461FF" stroke-width="1.5" stroke-linecap="round"/>
</svg>
