<svg width="82" height="22" viewBox="0 0 82 22" fill="none" xmlns="http://www.w3.org/2000/svg">
<path d="M0.1 0.989998H5.29V16.59H11.53V21H0.1V0.989998ZM34.2585 11.01C34.2585 13.97 33.2085 16.46 31.1085 18.48C29.0285 20.46 26.3985 21.45 23.2185 21.45C20.0385 21.45 17.4085 20.46 15.3285 18.48C13.2285 16.46 12.1785 13.97 12.1785 11.01C12.1785 9.63 12.4385 8.28 12.9585 6.96C13.4985 5.64 14.2885 4.49 15.3285 3.51C17.4085 1.53 20.0385 0.539999 23.2185 0.539999C26.3985 0.539999 29.0285 1.53 31.1085 3.51C32.1485 4.49 32.9285 5.64 33.4485 6.96C33.9885 8.28 34.2585 9.63 34.2585 11.01ZM23.2185 5.58C21.5785 5.58 20.2285 6.11 19.1685 7.17C18.1085 8.21 17.5785 9.52 17.5785 11.1C17.5785 12.56 18.1085 13.8 19.1685 14.82C20.2685 15.88 21.6185 16.41 23.2185 16.41C24.8585 16.41 26.1985 15.89 27.2385 14.85C28.3185 13.77 28.8585 12.49 28.8585 11.01C28.8585 9.49 28.3185 8.21 27.2385 7.17C26.1185 6.11 24.7785 5.58 23.2185 5.58ZM47.1707 13.71V9.66H57.4907C57.4907 11.72 57.2407 13.47 56.7407 14.91C56.2607 16.33 55.4407 17.58 54.2807 18.66C52.4807 20.34 50.1307 21.18 47.2307 21.18C44.0507 21.18 41.4907 20.19 39.5507 18.21C37.6307 16.29 36.6707 13.88 36.6707 10.98C36.6707 7.94 37.6707 5.44 39.6707 3.48C41.6307 1.52 44.2207 0.539999 47.4407 0.539999C49.5607 0.539999 51.3607 0.989999 52.8407 1.89C54.4007 2.85 55.5907 4.22 56.4107 6L51.4607 8.04C51.1407 7.24 50.6607 6.57 50.0207 6.03C49.2207 5.37 48.2907 5.04 47.2307 5.04C45.8707 5.04 44.7307 5.5 43.8107 6.42C42.6507 7.58 42.0707 9.11 42.0707 11.01C42.0707 12.77 42.6007 14.21 43.6607 15.33C44.6207 16.35 45.8407 16.86 47.3207 16.86C48.5007 16.86 49.4607 16.55 50.2007 15.93C50.8607 15.39 51.2707 14.65 51.4307 13.71H47.1707ZM81.9831 11.01C81.9831 13.97 80.9331 16.46 78.8331 18.48C76.7531 20.46 74.1231 21.45 70.9431 21.45C67.7631 21.45 65.1331 20.46 63.0531 18.48C60.9531 16.46 59.9031 13.97 59.9031 11.01C59.9031 9.63 60.1631 8.28 60.6831 6.96C61.2231 5.64 62.0131 4.49 63.0531 3.51C65.1331 1.53 67.7631 0.539999 70.9431 0.539999C74.1231 0.539999 76.7531 1.53 78.8331 3.51C79.8731 4.49 80.6531 5.64 81.1731 6.96C81.7131 8.28 81.9831 9.63 81.9831 11.01ZM70.9431 5.58C69.3031 5.58 67.9531 6.11 66.8931 7.17C65.8331 8.21 65.3031 9.52 65.3031 11.1C65.3031 12.56 65.8331 13.8 66.8931 14.82C67.9931 15.88 69.3431 16.41 70.9431 16.41C72.5831 16.41 73.9231 15.89 74.9631 14.85C76.0431 13.77 76.5831 12.49 76.5831 11.01C76.5831 9.49 76.0431 8.21 74.9631 7.17C73.8431 6.11 72.5031 5.58 70.9431 5.58Z" fill="#3461FF"/>
</svg>
