<svg width="19" height="22" viewBox="0 0 19 22" fill="none" xmlns="http://www.w3.org/2000/svg">
<path d="M2.7315 7.25843L3.4544 7.45822H3.4544L2.7315 7.25843ZM7.41283 2.44692L7.18568 1.73214L7.41283 2.44692ZM2.6807 7.44227L1.9578 7.24248L1.9578 7.24248L2.6807 7.44227ZM2.4615 11.9638L3.20032 11.8348L2.4615 11.9638ZM2.48701 12.1099L1.74819 12.2389L1.74819 12.2389L2.48701 12.1099ZM3.02594 17.0635L3.17283 16.328L3.17283 16.328L3.02594 17.0635ZM3.44254 17.1467L3.29565 17.8822H3.29565L3.44254 17.1467ZM15.5575 17.1467L15.7044 17.8822L15.5575 17.1467ZM15.9741 17.0635L15.8272 16.328H15.8272L15.9741 17.0635ZM16.5179 12.0819L17.2567 12.2109L17.2567 12.2109L16.5179 12.0819ZM16.5449 11.927L15.8061 11.7979V11.7979L16.5449 11.927ZM16.3473 7.4736L15.6228 7.66749V7.66749L16.3473 7.4736ZM16.2765 7.20927L17.001 7.01539V7.01539L16.2765 7.20927ZM11.7293 2.45375L11.9604 1.74022L11.7293 2.45375ZM16.7001 12.4453L17.0608 11.7878L16.7001 12.4453ZM2.3237 12.4324L1.97 11.7711L2.3237 12.4324ZM10.25 1C10.25 0.585786 9.91421 0.25 9.5 0.25C9.08579 0.25 8.75 0.585786 8.75 1H10.25ZM8.75 2.11638C8.75 2.53059 9.08579 2.86638 9.5 2.86638C9.91421 2.86638 10.25 2.53059 10.25 2.11638H8.75ZM6.11031 17.5593L6.19248 16.8138L5.2956 16.715L5.36237 17.6148L6.11031 17.5593ZM12.8897 17.5593L13.6376 17.6148L13.7044 16.715L12.8075 16.8138L12.8897 17.5593ZM12.7868 18.1969L12.0594 18.0144L12.7868 18.1969ZM12.6939 18.5673L13.4214 18.7498L12.6939 18.5673ZM10.2977 20.9077L10.469 21.6379H10.469L10.2977 20.9077ZM8.70227 20.9077L8.53102 21.6379L8.70227 20.9077ZM6.30606 18.5673L5.5786 18.7497H5.5786L6.30606 18.5673ZM6.21317 18.1969L6.94064 18.0144H6.94063L6.21317 18.1969ZM3.4544 7.45822C4.01322 5.43622 5.59879 3.81038 7.63998 3.16169L7.18568 1.73214C4.67457 2.53017 2.70625 4.53431 2.0086 7.05864L3.4544 7.45822ZM3.4036 7.64205L3.4544 7.45822L2.0086 7.05864L1.9578 7.24248L3.4036 7.64205ZM3.20032 11.8348C2.95663 10.4394 3.02598 9.00841 3.4036 7.64205L1.9578 7.24248C1.52103 8.82285 1.44075 10.4785 1.72268 12.0928L3.20032 11.8348ZM3.22583 11.9808L3.20032 11.8348L1.72268 12.0928L1.74819 12.2389L3.22583 11.9808ZM1.75 14.6226C1.75 13.9684 2.11946 13.3922 2.6774 13.0938L1.97 11.7711C0.951081 12.316 0.25 13.3851 0.25 14.6226H1.75ZM3.17283 16.328C2.33721 16.1611 1.75 15.4421 1.75 14.6226H0.25C0.25 16.1726 1.35722 17.495 2.87904 17.799L3.17283 16.328ZM3.58944 16.4112L3.17283 16.328L2.87904 17.799L3.29565 17.8822L3.58944 16.4112ZM15.4106 16.4112C11.5099 17.1903 7.4901 17.1903 3.58944 16.4112L3.29565 17.8822C7.39025 18.7 11.6097 18.7 15.7044 17.8822L15.4106 16.4112ZM15.8272 16.328L15.4106 16.4112L15.7044 17.8822L16.121 17.799L15.8272 16.328ZM17.25 14.6226C17.25 15.4421 16.6628 16.1611 15.8272 16.328L16.121 17.799C17.6428 17.495 18.75 16.1726 18.75 14.6226H17.25ZM16.3393 13.1028C16.888 13.4038 17.25 13.975 17.25 14.6226H18.75C18.75 13.3977 18.0629 12.3375 17.0608 11.7878L16.3393 13.1028ZM15.8061 11.7979L15.7791 11.9529L17.2567 12.2109L17.2838 12.056L15.8061 11.7979ZM15.6228 7.66749C15.9835 9.0156 16.046 10.4241 15.8061 11.7979L17.2838 12.056C17.5612 10.4673 17.4889 8.83835 17.0718 7.27972L15.6228 7.66749ZM15.552 7.40316L15.6228 7.66749L17.0718 7.27972L17.001 7.01539L15.552 7.40316ZM11.4983 3.16728C13.4959 3.81406 15.0189 5.41093 15.552 7.40316L17.001 7.01539C16.3344 4.52427 14.4344 2.54127 11.9604 1.74022L11.4983 3.16728ZM7.63998 3.16169C8.89146 2.76398 10.2524 2.76388 11.4983 3.16728L11.9604 1.74022C10.4134 1.23934 8.73204 1.24071 7.18568 1.73214L7.63998 3.16169ZM17.0608 11.7878C17.1867 11.8568 17.291 12.0146 17.2567 12.2109L15.7791 11.9528C15.6938 12.4411 15.9507 12.8896 16.3393 13.1028L17.0608 11.7878ZM1.74819 12.2389C1.71102 12.026 1.82436 11.849 1.97 11.7711L2.6774 13.0938C3.05863 12.8899 3.30845 12.454 3.22583 11.9808L1.74819 12.2389ZM8.75 1V2.11638H10.25V1H8.75ZM6.02815 18.3048C8.3355 18.5591 10.6645 18.5591 12.9719 18.3048L12.8075 16.8138C10.6094 17.0561 8.39061 17.0561 6.19248 16.8138L6.02815 18.3048ZM13.5143 18.3794C13.5773 18.1283 13.6185 17.8725 13.6376 17.6148L12.1417 17.5038C12.129 17.6758 12.1014 17.8466 12.0594 18.0144L13.5143 18.3794ZM13.4214 18.7498L13.5143 18.3794L12.0594 18.0144L11.9665 18.3848L13.4214 18.7498ZM10.469 21.6379C11.9181 21.2981 13.0609 20.1871 13.4214 18.7498L11.9665 18.3848C11.7449 19.2684 11.0383 19.9637 10.1265 20.1776L10.469 21.6379ZM8.53102 21.6379C9.16815 21.7874 9.83185 21.7874 10.469 21.6379L10.1265 20.1776C9.71463 20.2741 9.28537 20.2741 8.87352 20.1776L8.53102 21.6379ZM5.5786 18.7497C5.9391 20.1871 7.08189 21.2981 8.53102 21.6379L8.87352 20.1776C7.96165 19.9637 7.25513 19.2684 7.03353 18.3848L5.5786 18.7497ZM5.4857 18.3794L5.5786 18.7497L7.03353 18.3848L6.94064 18.0144L5.4857 18.3794ZM5.36237 17.6148C5.38149 17.8725 5.42272 18.1283 5.4857 18.3794L6.94063 18.0144C6.89855 17.8466 6.87102 17.6758 6.85826 17.5038L5.36237 17.6148Z" fill="#3461FF"/>
</svg>
