<svg width="26" height="47" viewBox="0 0 26 47" fill="none" xmlns="http://www.w3.org/2000/svg">
<path d="M12.9375 46.4375C9.45265 46.4375 6.49811 45.2108 4.07386 42.7575C1.64962 40.3042 0.4375 37.3142 0.4375 33.7875V9.6375C0.4375 7.1075 1.32765 4.94167 3.10795 3.14C4.88826 1.33833 7.02841 0.4375 9.52841 0.4375C12.0284 0.4375 14.1686 1.33833 15.9489 3.14C17.7292 4.94167 18.6193 7.1075 18.6193 9.6375V31.4875C18.6193 33.0975 18.0701 34.4583 16.9716 35.57C15.8731 36.6817 14.5284 37.2375 12.9375 37.2375C11.3466 37.2375 10.0019 36.6817 8.90341 35.57C7.80492 34.4583 7.25568 33.0975 7.25568 31.4875V11.3625C7.25568 10.8642 7.41705 10.4525 7.73977 10.1274C8.06099 9.8008 8.4678 9.6375 8.96023 9.6375C9.45265 9.6375 9.86023 9.8008 10.183 10.1274C10.5042 10.4525 10.6648 10.8642 10.6648 11.3625V31.4875C10.6648 32.1392 10.883 32.685 11.3193 33.1251C11.7542 33.5667 12.2936 33.7875 12.9375 33.7875C13.5814 33.7875 14.1216 33.5667 14.558 33.1251C14.9928 32.685 15.2102 32.1392 15.2102 31.4875V9.6375C15.2102 8.0275 14.661 6.66667 13.5625 5.555C12.464 4.44333 11.1193 3.8875 9.52841 3.8875C7.9375 3.8875 6.5928 4.44333 5.49432 5.555C4.39583 6.66667 3.84659 8.0275 3.84659 9.6375V33.7875C3.84659 36.3175 4.73674 38.4833 6.51705 40.285C8.29735 42.0867 10.4375 42.9875 12.9375 42.9875C15.4375 42.9875 17.5777 42.0867 19.358 40.285C21.1383 38.4833 22.0284 36.3175 22.0284 33.7875V11.3625C22.0284 10.8642 22.1898 10.4525 22.5125 10.1274C22.8337 9.8008 23.2405 9.6375 23.733 9.6375C24.2254 9.6375 24.633 9.8008 24.9557 10.1274C25.2769 10.4525 25.4375 10.8642 25.4375 11.3625V33.7875C25.4375 37.3142 24.2254 40.3042 21.8011 42.7575C19.3769 45.2108 16.4223 46.4375 12.9375 46.4375Z" fill="#D6E4FF"/>
</svg>
